# Blender 3.4.1
# www.blender.org
mtllib CoinProjectile.mtl
o Coin
v -0.000146 0.037848 0.000035
v -0.189330 0.037120 0.004650
v -0.181689 0.037104 0.053458
v -0.189040 -0.038576 0.004580
v -0.181400 -0.038592 0.053389
v 0.000145 -0.037848 -0.000034
v -0.184078 0.037186 -0.044471
v -0.183789 -0.038510 -0.044541
v -0.166292 0.037297 -0.090562
v -0.166002 -0.038400 -0.090631
v -0.137184 0.037445 -0.130477
v -0.136894 -0.038251 -0.130547
v -0.098735 0.037621 -0.161497
v -0.098445 -0.038076 -0.161567
v -0.053568 0.037812 -0.181509
v -0.053279 -0.037885 -0.181580
v -0.004761 0.038006 -0.189151
v -0.004471 -0.037691 -0.189221
v 0.044360 0.038189 -0.183900
v 0.044650 -0.037508 -0.183970
v 0.090451 0.038349 -0.166113
v 0.090740 -0.037348 -0.166183
v 0.130367 0.038475 -0.137003
v 0.130656 -0.037222 -0.137074
v 0.161386 0.038558 -0.098556
v 0.161675 -0.037138 -0.098626
v 0.181399 0.038593 -0.053388
v 0.181688 -0.037104 -0.053457
v 0.189041 0.038577 -0.004581
v 0.189330 -0.037120 -0.004651
v 0.183789 0.038511 0.044542
v 0.184080 -0.037186 0.044472
v 0.166002 0.038400 0.090631
v 0.166293 -0.037296 0.090561
v 0.136893 0.038252 0.130546
v 0.137183 -0.037445 0.130476
v 0.098445 0.038076 0.161567
v 0.098736 -0.037621 0.161496
v 0.053278 0.037884 0.181581
v 0.053568 -0.037812 0.181511
v 0.004471 0.037690 0.189220
v 0.004761 -0.038006 0.189151
v -0.044651 0.037507 0.183970
v -0.044362 -0.038189 0.183899
v -0.090740 0.037347 0.166183
v -0.090450 -0.038349 0.166113
v -0.130655 0.037222 0.137074
v -0.130365 -0.038475 0.137005
v -0.161675 0.037139 0.098625
v -0.161386 -0.038558 0.098555
vn -0.0038 1.0000 0.0009
vn -0.9593 -0.0039 0.2823
vn -0.9997 -0.0038 0.0244
vn 0.0038 -1.0000 -0.0009
vn -0.9719 -0.0035 -0.2352
vn -0.8780 -0.0029 -0.4787
vn -0.7241 -0.0021 -0.6897
vn -0.5210 -0.0012 -0.8536
vn -0.2823 -0.0002 -0.9593
vn -0.0244 0.0008 -0.9997
vn 0.2352 0.0018 -0.9720
vn 0.4787 0.0026 -0.8780
vn 0.6896 0.0033 -0.7241
vn 0.8536 0.0037 -0.5210
vn 0.9593 0.0039 -0.2823
vn 0.9997 0.0038 -0.0244
vn 0.9719 0.0035 0.2352
vn 0.8780 0.0029 0.4787
vn 0.7241 0.0021 0.6897
vn 0.5210 0.0012 0.8536
vn 0.2823 0.0002 0.9593
vn 0.0244 -0.0008 0.9997
vn -0.2352 -0.0018 0.9720
vn -0.4787 -0.0026 0.8780
vn -0.6896 -0.0033 0.7241
vn -0.8536 -0.0037 0.5210
vt 0.000000 0.000000
vt 0.041667 1.000000
vt 0.041667 0.000000
vt 0.000000 1.000000
vt 0.000000 0.000000
vt 1.000000 1.000000
vt 1.000000 0.000000
vt 0.041667 1.000000
vt 0.041667 0.000000
vt 0.000000 1.000000
vt 0.000000 0.000000
vt 1.000000 1.000000
vt 1.000000 0.000000
vt 0.000000 1.000000
vt 0.083333 1.000000
vt 0.083333 0.000000
vt 0.083333 1.000000
vt 0.083333 0.000000
vt 0.125000 1.000000
vt 0.125000 0.000000
vt 0.125000 1.000000
vt 0.125000 0.000000
vt 0.166667 1.000000
vt 0.166667 0.000000
vt 0.166667 1.000000
vt 0.166667 0.000000
vt 0.208333 1.000000
vt 0.208333 0.000000
vt 0.208333 1.000000
vt 0.208333 0.000000
vt 0.250000 1.000000
vt 0.250000 0.000000
vt 0.250000 1.000000
vt 0.250000 0.000000
vt 0.291667 1.000000
vt 0.291667 0.000000
vt 0.291667 1.000000
vt 0.291667 0.000000
vt 0.333333 1.000000
vt 0.333333 0.000000
vt 0.333333 1.000000
vt 0.333333 0.000000
vt 0.375000 1.000000
vt 0.375000 0.000000
vt 0.375000 1.000000
vt 0.375000 0.000000
vt 0.416667 1.000000
vt 0.416667 0.000000
vt 0.416667 1.000000
vt 0.416667 0.000000
vt 0.458333 1.000000
vt 0.458333 0.000000
vt 0.458333 1.000000
vt 0.458333 0.000000
vt 0.500000 1.000000
vt 0.500000 0.000000
vt 0.500000 1.000000
vt 0.500000 0.000000
vt 0.541667 1.000000
vt 0.541667 0.000000
vt 0.541667 1.000000
vt 0.541667 0.000000
vt 0.583333 1.000000
vt 0.583333 0.000000
vt 0.583333 1.000000
vt 0.583333 0.000000
vt 0.625000 1.000000
vt 0.625000 0.000000
vt 0.625000 1.000000
vt 0.625000 0.000000
vt 0.666667 1.000000
vt 0.666667 0.000000
vt 0.666667 1.000000
vt 0.666667 0.000000
vt 0.708333 1.000000
vt 0.708333 0.000000
vt 0.708333 1.000000
vt 0.708333 0.000000
vt 0.750000 1.000000
vt 0.750000 0.000000
vt 0.750000 1.000000
vt 0.750000 0.000000
vt 0.791667 1.000000
vt 0.791667 0.000000
vt 0.791667 1.000000
vt 0.791667 0.000000
vt 0.833333 1.000000
vt 0.833333 0.000000
vt 0.833333 1.000000
vt 0.833333 0.000000
vt 0.875000 1.000000
vt 0.875000 0.000000
vt 0.875000 1.000000
vt 0.875000 0.000000
vt 0.916667 1.000000
vt 0.916667 0.000000
vt 0.916667 1.000000
vt 0.916667 0.000000
vt 0.958333 1.000000
vt 0.958333 0.000000
vt 0.958333 1.000000
vt 0.958333 0.000000
s 1
f 1/1/1 2/2/1 3/4/1
f 3/5/2 2/3/3 4/8/3 5/10/2
f 5/11/4 4/9/4 6/14/4
f 1/1/1 7/15/1 2/2/1
f 2/3/3 7/16/5 8/17/5 4/8/3
f 4/9/4 8/18/4 6/14/4
f 1/1/1 9/19/1 7/15/1
f 7/16/5 9/20/6 10/21/6 8/17/5
f 8/18/4 10/22/4 6/14/4
f 1/1/1 11/23/1 9/19/1
f 9/20/6 11/24/7 12/25/7 10/21/6
f 10/22/4 12/26/4 6/14/4
f 1/1/1 13/27/1 11/23/1
f 11/24/7 13/28/8 14/29/8 12/25/7
f 12/26/4 14/30/4 6/14/4
f 1/1/1 15/31/1 13/27/1
f 13/28/8 15/32/9 16/33/9 14/29/8
f 14/30/4 16/34/4 6/14/4
f 1/1/1 17/35/1 15/31/1
f 15/32/9 17/36/10 18/37/10 16/33/9
f 16/34/4 18/38/4 6/14/4
f 1/1/1 19/39/1 17/35/1
f 17/36/10 19/40/11 20/41/11 18/37/10
f 18/38/4 20/42/4 6/14/4
f 1/1/1 21/43/1 19/39/1
f 19/40/11 21/44/12 22/45/12 20/41/11
f 20/42/4 22/46/4 6/14/4
f 1/1/1 23/47/1 21/43/1
f 21/44/12 23/48/13 24/49/13 22/45/12
f 22/46/4 24/50/4 6/14/4
f 1/1/1 25/51/1 23/47/1
f 23/48/13 25/52/14 26/53/14 24/49/13
f 24/50/4 26/54/4 6/14/4
f 1/1/1 27/55/1 25/51/1
f 25/52/14 27/56/15 28/57/15 26/53/14
f 26/54/4 28/58/4 6/14/4
f 1/1/1 29/59/1 27/55/1
f 27/56/15 29/60/16 30/61/16 28/57/15
f 28/58/4 30/62/4 6/14/4
f 1/1/1 31/63/1 29/59/1
f 29/60/16 31/64/17 32/65/17 30/61/16
f 30/62/4 32/66/4 6/14/4
f 1/1/1 33/67/1 31/63/1
f 31/64/17 33/68/18 34/69/18 32/65/17
f 32/66/4 34/70/4 6/14/4
f 1/1/1 35/71/1 33/67/1
f 33/68/18 35/72/19 36/73/19 34/69/18
f 34/70/4 36/74/4 6/14/4
f 1/1/1 37/75/1 35/71/1
f 35/72/19 37/76/20 38/77/20 36/73/19
f 36/74/4 38/78/4 6/14/4
f 1/1/1 39/79/1 37/75/1
f 37/76/20 39/80/21 40/81/21 38/77/20
f 38/78/4 40/82/4 6/14/4
f 1/1/1 41/83/1 39/79/1
f 39/80/21 41/84/22 42/85/22 40/81/21
f 40/82/4 42/86/4 6/14/4
f 1/1/1 43/87/1 41/83/1
f 41/84/22 43/88/23 44/89/23 42/85/22
f 42/86/4 44/90/4 6/14/4
f 1/1/1 45/91/1 43/87/1
f 43/88/23 45/92/24 46/93/24 44/89/23
f 44/90/4 46/94/4 6/14/4
f 1/1/1 47/95/1 45/91/1
f 45/92/24 47/96/25 48/97/25 46/93/24
f 46/94/4 48/98/4 6/14/4
f 1/1/1 49/99/1 47/95/1
f 47/96/25 49/100/26 50/101/26 48/97/25
f 48/98/4 50/102/4 6/14/4
f 1/1/1 3/6/1 49/99/1
f 49/100/26 3/7/2 5/12/2 50/101/26
f 50/102/4 5/13/4 6/14/4
