# Blender 3.4.1
# www.blender.org
mtllib Fist.mtl
o Icosphere
v -0.192408 -1.000000 -0.155091
v -0.897377 -0.447215 0.395361
v -0.933765 -0.447215 -0.655457
v 0.054384 -0.447215 -1.014794
v 0.701471 -0.447215 -0.186036
v 0.113246 -0.447215 0.685477
v -0.897553 0.447215 -0.007944
v -0.158159 0.447215 -0.643207
v 0.253709 0.447215 -0.577486
v 0.548949 0.131816 0.345275
v -0.439200 0.131816 0.704612
v -0.192647 0.486786 -0.241250
v -0.307545 0.408579 0.486768
v 0.186530 0.408579 0.307100
vn -0.6067 -0.7947 0.0210
vn -0.1675 -0.7947 0.5835
vn -0.2075 -0.7947 -0.5705
vn 0.4785 -0.7947 -0.3736
vn 0.5032 -0.7947 0.3396
vn -0.2646 -0.2830 0.9219
vn -0.9993 0.0154 0.0346
vn -0.3265 0.2954 -0.8978
vn 0.7821 0.1243 -0.6106
vn 0.7950 -0.2829 0.5366
vn -0.7502 0.2717 0.6028
vn -0.5648 0.4988 -0.6574
vn 0.1438 0.4086 -0.9013
vn 0.9089 0.3854 -0.1591
vn 0.3278 0.2829 0.9014
vn -0.4477 0.6748 0.5867
vn -0.0904 0.9903 -0.1053
vn 0.0154 0.9952 -0.0967
vn 0.1277 0.9904 0.0530
vn 0.0411 0.9927 0.1131
vn 0.2960 0.4999 0.8140
vn 0.5996 0.7963 0.0803
vn -0.0216 0.9944 0.1034
vt 0.181819 0.000000
vt 0.363637 0.000000
vt 0.909091 0.000000
vt 0.727273 0.000000
vt 0.545455 0.000000
vt 0.272728 0.157461
vt 1.000000 0.157461
vt 0.090910 0.157461
vt 0.818182 0.157461
vt 0.636364 0.157461
vt 0.454546 0.157461
vt 0.181819 0.314921
vt 0.000000 0.314921
vt 0.909091 0.314921
vt 0.727273 0.314921
vt 0.545455 0.314921
vt 0.363637 0.314921
vt 0.090910 0.472382
vt 0.818182 0.472382
vt 0.636364 0.472382
vt 0.454546 0.472382
vt 0.272728 0.472382
vt 0.409092 0.393651
vt 0.318182 0.393651
vt 0.500000 0.393651
vt 0.590909 0.393651
s 0
f 1/1/1 2/6/1 3/8/1
f 2/6/2 1/2/2 6/11/2
f 1/3/3 3/7/3 4/9/3
f 1/4/4 4/9/4 5/10/4
f 1/5/5 5/10/5 6/11/5
f 2/6/6 6/11/6 11/17/6
f 3/8/7 2/6/7 7/12/7
f 4/9/8 3/7/8 8/14/8
f 5/10/9 4/9/9 9/15/9
f 6/11/10 5/10/10 10/16/10
f 2/6/11 11/17/11 7/12/11
f 3/8/12 7/12/12 8/13/12
f 4/9/13 8/14/13 9/15/13
f 5/10/14 9/15/14 10/16/14
f 6/11/15 10/16/15 11/17/15
f 7/12/16 11/17/16 13/24/16
f 8/13/17 7/12/17 12/18/17
f 9/15/18 8/14/18 12/19/18
f 9/15/19 12/20/19 14/26/19
f 13/23/20 14/25/20 12/21/20
f 11/17/21 10/16/21 14/25/21 13/23/21
f 10/16/22 9/15/22 14/26/22
f 12/22/23 7/12/23 13/24/23
