# Blender 3.4.1
# www.blender.org
mtllib Grenade.mtl
o Icosphere
v -0.000947 -0.790177 0.083680
v 0.152391 -0.447215 0.389533
v -0.092484 -0.447215 0.424855
v -0.210860 -0.447215 -0.011319
v -0.039139 -0.447215 -0.316207
v 0.267826 -0.447215 -0.074837
v -0.190732 0.447215 0.390727
v -0.316958 0.447215 -0.339348
v 0.223945 0.131816 0.313829
v 0.109874 0.408579 0.310122
v 0.291174 0.408579 -0.318961
v 0.144569 -0.723607 -0.035153
v 0.118819 -0.723607 0.322569
v 0.227172 -0.585411 -0.037258
v -0.030778 -0.723608 -0.228655
v -0.072443 -0.723608 0.350157
v -0.164901 -0.723608 0.009480
v -0.279307 0.447215 0.150962
v -0.367882 0.447215 -0.088803
v -0.090530 0.434336 0.363859
v 0.009672 0.421458 0.336991
v 0.323741 0.408579 -0.116453
v 0.216808 0.408579 0.096834
v -0.160747 0.434336 -0.328959
v 0.134964 0.421458 -0.329350
v -0.113936 0.434336 0.132920
v -0.129200 0.502776 0.007330
v 0.051436 0.421458 0.114877
v 0.101341 0.489898 -0.001887
v -0.108136 0.585794 -0.287437
v 0.078982 0.577645 -0.287685
v -0.093325 0.585794 -0.141305
v 0.052555 0.577645 -0.147137
vn 0.1383 -0.2490 0.9586
vn 0.4369 -0.8989 0.0315
vn -0.9557 -0.1394 0.2594
vn -0.8573 -0.1789 -0.4828
vn 0.6734 -0.3718 -0.6390
vn 0.9667 -0.0880 0.2403
vn -0.9607 -0.0956 0.2607
vn -0.8383 -0.2726 -0.4722
vn -0.9296 -0.1335 0.3434
vn 0.8455 -0.5163 -0.1360
vn 0.2663 0.0659 0.9616
vn 0.1419 0.1111 0.9836
vn 0.3195 0.9462 -0.0514
vn 0.9942 0.0034 0.1071
vn 0.0659 -0.0053 -0.9978
vn 0.1822 0.0882 0.9793
vn 0.6749 -0.4127 -0.6116
vn 0.9478 -0.2148 0.2356
vn -0.4174 -0.9017 0.1133
vn -0.3033 -0.9375 -0.1708
vn 0.0363 -0.9672 0.2514
vn 0.2478 -0.9424 -0.2245
vn 0.8571 -0.5114 0.0617
vn 0.0941 0.9738 -0.2070
vn 0.9406 0.2899 0.1769
vn 0.0746 0.9968 -0.0276
vn -0.2625 0.9600 0.0970
vn 0.0768 0.9970 -0.0078
vn 0.0680 0.8795 0.4710
vn 0.0792 0.9967 0.0149
vn 0.5269 0.6156 0.5860
vn 0.0435 0.9990 -0.0044
vn 0.0101 0.2611 -0.9653
vn -0.9154 0.4026 0.0039
vn 0.0682 0.8639 0.4990
vn 0.0412 -0.2751 -0.9605
vn -0.0020 -0.0147 -0.9999
vn 0.6125 -0.1345 -0.7789
vn 0.0934 0.9764 -0.1945
vn -0.2102 0.9767 -0.0427
vn 0.8372 0.3507 0.4197
vn -0.9629 -0.1860 -0.1957
vn 0.8801 0.4747 -0.0088
vn -0.9481 0.3030 0.0961
vn 0.6023 -0.2244 -0.7660
vn 0.9597 -0.1707 0.2234
vn 0.1241 0.9922 -0.0126
vn 0.1190 0.8779 0.4639
vn 0.1341 0.9906 0.0252
vn 0.1238 0.8321 0.5406
vn 0.1465 0.9865 0.0734
vn 0.0820 0.9958 0.0411
vn 0.0562 0.9984 0.0106
vt 0.363637 0.000000
vt 0.909091 0.000000
vt 0.727273 0.000000
vt 0.181819 0.000000
vt 0.545455 0.000000
vt 0.272728 0.157461
vt 0.090910 0.157461
vt 1.000000 0.157461
vt 0.818182 0.157461
vt 0.636364 0.157461
vt 0.454546 0.157461
vt 0.909091 0.314921
vt 0.000000 0.314921
vt 0.727273 0.314921
vt 0.363637 0.314921
vt 0.318182 0.393651
vt 0.409092 0.393651
vt 0.500000 0.393651
vt 0.590909 0.393651
vt 0.500000 0.078731
vt 0.409092 0.078731
vt 0.227273 0.078731
vt 0.318182 0.078730
vt 0.477273 0.118096
vt 0.431819 0.118096
vt 0.681818 0.078731
vt 0.590909 0.078731
vt 0.136365 0.078731
vt 0.954545 0.078731
vt 0.863636 0.078731
vt 0.772727 0.078731
vt 0.848485 0.314921
vt 0.242424 0.314921
vt 0.484849 0.314921
vt 0.787879 0.314921
vt 0.106061 0.341164
vt 0.136364 0.341164
vt 0.212122 0.367408
vt 0.272728 0.367408
vt 0.469697 0.393651
vt 0.530303 0.393651
vt 0.439394 0.393651
vt 0.469697 0.393651
vt 0.681818 0.341164
vt 0.651515 0.341164
vt 0.636364 0.367408
vt 0.575758 0.367408
vt 0.318182 0.341164
vt 0.500000 0.341164
vt 0.393940 0.367408
vt 0.515152 0.367408
vt 0.681818 0.341164
vt 0.651515 0.341164
vt 0.575758 0.367408
vt 0.636364 0.367408
vt 0.500000 0.341164
vt 0.515152 0.367408
s 0
f 13/22/1 3/7/1 16/28/1
f 13/23/2 1/1/2 12/21/2
f 16/29/3 4/9/3 17/30/3
f 17/31/4 5/10/4 15/26/4
f 15/27/5 6/11/5 14/24/5
f 2/6/6 6/11/6 9/15/6
f 4/9/7 3/8/7 7/12/7
f 5/10/8 4/9/8 8/14/8
f 4/9/9 7/12/9 18/32/9
f 9/15/10 11/18/10 22/40/10
f 3/7/11 10/16/11 21/38/11
f 3/7/12 2/6/12 9/15/12
f 29/51/13 22/41/13 11/19/13
f 9/15/14 6/11/14 11/18/14
f 5/10/15 8/14/15 24/45/15
f 3/7/16 9/15/16 10/16/16
f 15/27/17 14/24/17 12/20/17
f 2/6/18 14/25/18 6/11/18
f 1/2/19 16/29/19 17/30/19
f 1/3/20 17/31/20 15/26/20
f 1/4/21 13/22/21 16/28/21
f 1/5/22 15/27/22 12/20/22
f 14/25/23 13/23/23 12/21/23
f 27/49/24 24/44/24 8/14/24
f 25/46/25 31/55/25 33/57/25
f 7/13/26 26/48/26 18/33/26
f 18/33/27 27/49/27 19/34/27
f 20/37/28 28/50/28 26/48/28
f 26/48/29 29/51/29 27/49/29
f 21/39/30 23/43/30 28/50/30
f 28/50/31 22/41/31 29/51/31
f 32/56/32 31/55/32 30/52/32
f 25/47/33 30/53/33 31/54/33
f 24/44/34 27/49/34 32/56/34
f 27/49/35 33/57/35 32/56/35
f 11/18/36 6/11/36 25/47/36
f 5/10/37 24/45/37 25/47/37
f 6/11/38 5/10/38 25/47/38
f 25/46/39 29/51/39 11/19/39
f 19/34/40 27/49/40 8/14/40
f 10/17/41 9/15/41 23/42/41
f 23/42/41 9/15/41 22/40/41
f 8/14/42 4/9/42 19/35/42
f 19/35/9 4/9/9 18/32/9
f 7/13/11 3/7/11 20/36/11
f 20/36/11 3/7/11 21/38/11
f 29/51/43 25/46/43 33/57/43
f 30/52/44 24/44/44 32/56/44
f 13/22/1 2/6/1 3/7/1
f 16/29/3 3/8/3 4/9/3
f 17/31/4 4/9/4 5/10/4
f 15/27/45 5/10/45 6/11/45
f 2/6/46 13/23/46 14/25/46
f 7/13/47 20/37/47 26/48/47
f 18/33/48 26/48/48 27/49/48
f 20/37/49 21/39/49 28/50/49
f 26/48/50 28/50/50 29/51/50
f 21/39/51 10/17/51 23/43/51
f 28/50/52 23/43/52 22/41/52
f 32/56/53 33/57/53 31/55/53
f 25/47/33 24/45/33 30/53/33
f 27/49/35 29/51/35 33/57/35
